# This file uses centimeters as units for non-parametric coordinates.

mtllib dodecahedron.mtl
g default
v 0.934172 -0.356822 -0.000000
v 0.934172 0.356822 0.000000
v 0.356822 0.000000 -0.934172
v 0.577350 0.577350 -0.577350
v 0.577350 -0.577350 -0.577350
v 0.356822 -0.000000 0.934172
v 0.577350 -0.577350 0.577350
v 0.577350 0.577350 0.577350
v -0.934172 -0.356822 -0.000000
v -0.934172 0.356822 0.000000
v -0.356822 -0.000000 0.934172
v -0.577350 -0.577350 0.577350
v -0.577350 0.577350 0.577350
v -0.356822 0.000000 -0.934172
v -0.577350 0.577350 -0.577350
v -0.577350 -0.577350 -0.577350
v 0.000000 -0.934172 0.356822
v 0.000000 0.934172 0.356822
v 0.000000 0.934172 -0.356822
v 0.000000 -0.934172 -0.356822
vt 0.099106 0.250000
vt 0.221609 0.250000
vt 0.259464 0.368034
vt 0.160357 0.440983
vt 0.061251 0.368034
vt 0.037855 0.440983
vt 0.198213 0.559017
vt 0.099106 0.631966
vt 0.000000 0.559017
vt 0.320715 0.559017
vt 0.358570 0.677051
vt 0.259464 0.750000
vt 0.160357 0.677051
vt 0.358570 0.440983
vt 0.481072 0.440983
vt 0.518928 0.559017
vt 0.419821 0.631966
vt 0.297319 0.250000
vt 0.419821 0.250000
vt 0.457677 0.368034
vt 0.740536 0.250000
vt 0.839643 0.322949
vt 0.801787 0.440983
vt 0.679285 0.440983
vt 0.641430 0.322949
vt 0.580179 0.368034
vt 0.641430 0.559017
vt 0.740536 0.631966
vt 0.702681 0.750000
vt 0.580179 0.750000
vt 0.542323 0.631966
vt 0.839643 0.559017
vt 0.938749 0.631966
vt 0.900894 0.750000
vt 0.778391 0.750000
vt 0.900894 0.368034
vt 1.000000 0.440983
vt 0.962145 0.559017
vn 0.850651 0.000000 -0.525731
vn 0.850651 0.000000 -0.525731
vn 0.850651 0.000000 -0.525731
vn 0.850651 0.000000 -0.525731
vn 0.850651 0.000000 -0.525731
vn 0.850651 0.000000 0.525731
vn 0.850651 0.000000 0.525731
vn 0.850651 0.000000 0.525731
vn 0.850651 0.000000 0.525731
vn 0.850651 0.000000 0.525731
vn 0.525731 -0.850651 -0.000000
vn 0.525731 -0.850651 -0.000000
vn 0.525731 -0.850651 -0.000000
vn 0.525731 -0.850651 -0.000000
vn 0.525731 -0.850651 -0.000000
vn 0.000000 -0.525731 0.850651
vn 0.000000 -0.525731 0.850651
vn 0.000000 -0.525731 0.850651
vn 0.000000 -0.525731 0.850651
vn 0.000000 -0.525731 0.850651
vn -0.525731 -0.850651 0.000000
vn -0.525731 -0.850651 0.000000
vn -0.525731 -0.850651 0.000000
vn -0.525731 -0.850651 0.000000
vn -0.525731 -0.850651 0.000000
vn 0.000000 -0.525731 -0.850651
vn 0.000000 -0.525731 -0.850651
vn 0.000000 -0.525731 -0.850651
vn 0.000000 -0.525731 -0.850651
vn 0.000000 -0.525731 -0.850651
vn 0.000000 0.525731 -0.850651
vn 0.000000 0.525731 -0.850651
vn 0.000000 0.525731 -0.850651
vn 0.000000 0.525731 -0.850651
vn 0.000000 0.525731 -0.850651
vn 0.525731 0.850651 0.000000
vn 0.525731 0.850651 0.000000
vn 0.525731 0.850651 0.000000
vn 0.525731 0.850651 0.000000
vn 0.525731 0.850651 0.000000
vn 0.000000 0.525731 0.850651
vn 0.000000 0.525731 0.850651
vn 0.000000 0.525731 0.850651
vn 0.000000 0.525731 0.850651
vn 0.000000 0.525731 0.850651
vn -0.850651 -0.000000 0.525731
vn -0.850651 -0.000000 0.525731
vn -0.850651 -0.000000 0.525731
vn -0.850651 -0.000000 0.525731
vn -0.850651 -0.000000 0.525731
vn -0.525731 0.850651 -0.000000
vn -0.525731 0.850651 -0.000000
vn -0.525731 0.850651 -0.000000
vn -0.525731 0.850651 -0.000000
vn -0.525731 0.850651 -0.000000
vn -0.850651 0.000000 -0.525731
vn -0.850651 0.000000 -0.525731
vn -0.850651 0.000000 -0.525731
vn -0.850651 0.000000 -0.525731
vn -0.850651 0.000000 -0.525731
s off
g pSolid1
usemtl initialShadingGroup
f 1/7/1 5/8/2 3/9/3 4/6/4 2/4/5
f 8/3/6 6/14/7 7/10/8 1/7/9 2/4/10
f 1/7/11 7/10/12 17/11/13 20/12/14 5/13/15
f 6/14/16 11/15/17 12/16/18 17/17/19 7/10/20
f 17/30/21 12/31/22 9/27/23 16/28/24 20/29/25
f 5/34/26 20/35/27 16/28/28 14/32/29 3/33/30
f 3/38/31 14/32/32 15/23/33 19/36/34 4/37/35
f 2/4/36 4/5/37 19/1/38 18/2/39 8/3/40
f 8/3/41 18/18/42 13/19/43 11/20/44 6/14/45
f 9/27/46 12/16/47 11/15/48 13/26/49 10/24/50
f 10/24/51 13/25/52 18/21/53 19/22/54 15/23/55
f 10/24/56 15/23/57 14/32/58 16/28/59 9/27/60
